<svg xmlns="http://www.w3.org/2000/svg" width="32" height="32" viewBox="0 0 32 32" fill="none">
  <!-- Background circle -->
  <circle cx="16" cy="16" r="16" fill="#3B82F6"/>
  
  <!-- Music note -->
  <path d="M12 8v12.5c-1.5-1-3-1.5-4.5-1.5-2.5 0-4.5 1.5-4.5 3.5s2 3.5 4.5 3.5 4.5-1.5 4.5-3.5V10l8-2v8.5c-1.5-1-3-1.5-4.5-1.5-2.5 0-4.5 1.5-4.5 3.5s2 3.5 4.5 3.5 4.5-1.5 4.5-3.5V6l-8 2z" fill="white"/>
  
  <!-- Calendar dots -->
  <circle cx="10" cy="6" r="1" fill="#3B82F6"/>
  <circle cx="14" cy="6" r="1" fill="#3B82F6"/>
  <circle cx="18" cy="6" r="1" fill="#3B82F6"/>
  <circle cx="22" cy="6" r="1" fill="#3B82F6"/>
</svg> 